<svg xmlns="http://www.w3.org/2000/svg" width="40" height="40" viewBox="0 0 80 80">
  <defs>
    <style>.cls-1{fill:#a5a5a5;}.cls-2{fill:#fff;}</style>
  </defs>
  <title>Instagram</title>
  <g id="Design">
    <ellipse class="cls-1" cx="40.24" cy="39.86" rx="40.11" ry="40.09"/>
    <circle class="cls-2" cx="54.44" cy="25.9" r="3.12"/>
    <path class="cls-2" d="M40.59,26.78A13.09,13.09,0,1,0,53.68,39.86,13.1,13.1,0,0,0,40.59,26.78Zm0,21.46A8.38,8.38,0,1,1,49,39.86,8.39,8.39,0,0,1,40.59,48.24Z"/>
    <path class="cls-2" d="M51,66.43H29.76a16,16,0,0,1-16-16V29.26a16,16,0,0,1,16-16H51a16,16,0,0,1,16,16V50.47A16,16,0,0,1,51,66.43ZM29.76,18.3a11,11,0,0,0-11,11V50.47a11,11,0,0,0,11,11H51a11,11,0,0,0,11-11V29.26a11,11,0,0,0-11-11Z"/>
  </g>
</svg>
