<svg xmlns="http://www.w3.org/2000/svg" width="40" height="40" viewBox="0 0 80 80">
  <defs>
    <style>.cls-1{fill:#a5a5a5;}.cls-2,.cls-3{fill:#fff;}.cls-3{fill-rule:evenodd;}</style>
  </defs>
  <title>Twitter</title>
  <g id="Design">
    <ellipse class="cls-1" cx="40.46" cy="39.71" rx="40.11" ry="40.09"/>
    <path class="cls-2" d="M64.82,24.25a20.13,20.13,0,0,1-5,1.42c.81-.13,2-1.59,2.47-2.18a9.2,9.2,0,0,0,1.66-3c0-.09.08-.2,0-.26a.32.32,0,0,0-.27,0,25.6,25.6,0,0,1-5.92,2.27.4.4,0,0,1-.41-.11,4.36,4.36,0,0,0-.52-.53A10.46,10.46,0,0,0,54,20.1a10.19,10.19,0,0,0-4.4-.71,10.68,10.68,0,0,0-4.18,1.18A10.82,10.82,0,0,0,42,23.32a10.29,10.29,0,0,0-2,4,10.91,10.91,0,0,0-.1,4.26c0,.24,0,.27-.21.24-8.14-1.21-14.89-4.13-20.37-10.37-.23-.27-.36-.27-.56,0-2.4,3.6-1.23,9.37,1.76,12.2a16.38,16.38,0,0,0,1.25,1.1,10.22,10.22,0,0,1-3.93-1.1c-.23-.15-.35-.06-.37.21a5.75,5.75,0,0,0,.06,1.16A10.44,10.44,0,0,0,24,43.4a6.52,6.52,0,0,0,1.3.4,11.85,11.85,0,0,1-3.85.12c-.28-.06-.39.08-.28.35,1.69,4.62,5.36,6,8.1,6.78.36.07.73.07,1.1.15,0,0,0,0-.07.07-.91,1.38-4.06,2.41-5.53,2.93a19.83,19.83,0,0,1-8.4,1.07c-.45-.06-.54-.06-.67,0s0,.19.13.3c.58.38,1.16.72,1.75,1a27.61,27.61,0,0,0,5.62,2.25c10.09,2.78,21.46.73,29-6.79,6-5.91,8-14.06,8-22.22,0-.32.38-.5.6-.67a19.65,19.65,0,0,0,3.94-4.1,1.19,1.19,0,0,0,.24-.79v0C65,24.12,65,24.16,64.82,24.25Z"/>
    <path class="cls-3" d="M30.27,59.87c-.06,0-.82,0,0,0Z"/>
    <path class="cls-3" d="M31.93,59.91c0-.08.88,0,0,0C31.93,59.87,32,59.91,31.93,59.91Z"/>
    <path class="cls-3" d="M49.41,19.43a.2.2,0,0,1-.21,0Z"/>
  </g>
</svg>
